<svg width="40" height="40" viewBox="0 0 40 40" fill="none" xmlns="http://www.w3.org/2000/svg">
<g id="apps">
<path d="M0 20C0 8.95431 8.95431 0 20 0C31.0457 0 40 8.95431 40 20C40 31.0457 31.0457 40 20 40C8.95431 40 0 31.0457 0 20Z" fill="#29784D"/>
<path id="Vector" d="M6.66675 13.3333H13.3334V6.66666H6.66675V13.3333ZM16.6667 33.3333H23.3334V26.6667H16.6667V33.3333ZM6.66675 33.3333H13.3334V26.6667H6.66675V33.3333ZM6.66675 23.3333H13.3334V16.6667H6.66675V23.3333ZM16.6667 23.3333H23.3334V16.6667H16.6667V23.3333ZM26.6667 6.66666V13.3333H33.3334V6.66666H26.6667ZM16.6667 13.3333H23.3334V6.66666H16.6667V13.3333ZM26.6667 23.3333H33.3334V16.6667H26.6667V23.3333ZM26.6667 33.3333H33.3334V26.6667H26.6667V33.3333Z" fill="#95DBAF"/>
</g>
</svg>
