<svg width="40" height="39" viewBox="0 0 40 39" fill="none" xmlns="http://www.w3.org/2000/svg">
<g id="edit_note">
<path d="M0 19.5C0 8.73045 8.73045 0 19.5 0H20.5C31.2696 0 40 8.73045 40 19.5C40 30.2696 31.2696 39 20.5 39H19.5C8.73045 39 0 30.2696 0 19.5Z" fill="#29784D"/>
<path id="Vector" d="M4.88953 13.8125H23.2229V17.0625H4.88953V13.8125ZM4.88953 10.5625H23.2229V7.3125H4.88953V10.5625ZM4.88953 23.5625H16.5562V20.3125H4.88953V23.5625ZM29.9062 18.4762L31.0895 17.3225C31.7395 16.6887 32.7895 16.6887 33.4395 17.3225L34.6229 18.4762C35.2729 19.11 35.2729 20.1337 34.6229 20.7675L33.4395 21.9212L29.9062 18.4762ZM28.7229 19.63L19.8895 28.2425V31.6875H23.4229L32.2562 23.075L28.7229 19.63Z" fill="white"/>
</g>
</svg>
