<svg width="73" height="72" viewBox="0 0 73 72" fill="none" xmlns="http://www.w3.org/2000/svg">
<g id="storefront">
<path id="Vector" d="M66.6763 26.67L63.5263 13.56C62.8663 10.86 60.5263 9 57.7963 9H16.1263C13.4263 9 11.0563 10.89 10.4263 13.56L7.27634 26.67C6.55634 29.73 7.21634 32.85 9.13634 35.31C9.37634 35.64 9.70634 35.88 9.97634 36.18V57C9.97634 60.3 12.6763 63 15.9763 63H57.9763C61.2763 63 63.9763 60.3 63.9763 57V36.18C64.2463 35.91 64.5763 35.64 64.8163 35.34C66.7363 32.88 67.4263 29.73 66.6763 26.67ZM57.7063 14.97L60.8563 28.08C61.1563 29.34 60.8863 30.6 60.1063 31.59C59.6863 32.13 58.7863 33 57.2863 33C55.4563 33 53.8663 31.53 53.6563 29.58L51.9163 15L57.7063 14.97ZM39.9763 15H45.8563L47.4763 28.56C47.6263 29.73 47.2663 30.9 46.4863 31.77C45.8263 32.55 44.8663 33 43.6363 33C41.6263 33 39.9763 31.23 39.9763 29.07V15ZM26.4463 28.56L28.0963 15H33.9763V29.07C33.9763 31.23 32.3263 33 30.1063 33C29.0863 33 28.1563 32.55 27.4363 31.77C26.6863 30.9 26.3263 29.73 26.4463 28.56ZM13.0963 28.08L16.1263 15H22.0363L20.2963 29.58C20.0563 31.53 18.4963 33 16.6663 33C15.1963 33 14.2663 32.13 13.8763 31.59C13.0663 30.63 12.7963 29.34 13.0963 28.08ZM15.9763 57V38.91C16.2163 38.94 16.4263 39 16.6663 39C19.2763 39 21.6463 37.92 23.3863 36.15C25.1863 37.95 27.5863 39 30.3163 39C32.9263 39 35.2663 37.92 37.0063 36.21C38.7763 37.92 41.1763 39 43.8763 39C46.3963 39 48.7963 37.95 50.5963 36.15C52.3363 37.92 54.7063 39 57.3163 39C57.5563 39 57.7663 38.94 58.0063 38.91V57H15.9763Z" fill="#29784D"/>
</g>
</svg>
