<svg width="32" height="31" viewBox="0 0 32 31" fill="none" xmlns="http://www.w3.org/2000/svg">
<g id="store">
<path id="Vector" d="M6.66676 7.74999H25.3334C26.0668 7.74999 26.6668 7.16874 26.6668 6.45832C26.6668 5.74791 26.0668 5.16666 25.3334 5.16666H6.66676C5.93343 5.16666 5.33343 5.74791 5.33343 6.45832C5.33343 7.16874 5.93343 7.74999 6.66676 7.74999ZM26.8801 10.075C26.7601 9.48082 26.2134 9.04166 25.5734 9.04166H6.42676C5.78677 9.04166 5.2401 9.48082 5.1201 10.075L3.78676 16.5333C3.62676 17.3342 4.25343 18.0833 5.09343 18.0833H5.33343V24.5417C5.33343 25.2521 5.93343 25.8333 6.66676 25.8333H17.3334C18.0668 25.8333 18.6668 25.2521 18.6668 24.5417V18.0833H24.0001V24.5417C24.0001 25.2521 24.6001 25.8333 25.3334 25.8333C26.0668 25.8333 26.6668 25.2521 26.6668 24.5417V18.0833H26.9068C27.7468 18.0833 28.3734 17.3342 28.2134 16.5333L26.8801 10.075ZM16.0001 23.25H8.0001V18.0833H16.0001V23.25Z" fill="#95DBAF"/>
</g>
</svg>
